<svg width="11" height="9" viewBox="0 0 11 9" fill="none" xmlns="http://www.w3.org/2000/svg">
<path d="M0.177734 9V0.433594H1.17383V9H0.177734ZM10.3672 4.63477C10.3672 6.04883 9.98242 7.13086 9.21289 7.88086C8.44727 8.62695 7.34375 9 5.90234 9H3.5293V0.433594H6.1543C7.48633 0.433594 8.52148 0.802734 9.25977 1.54102C9.99805 2.2793 10.3672 3.31055 10.3672 4.63477ZM9.3125 4.66992C9.3125 3.55273 9.03125 2.71094 8.46875 2.14453C7.91016 1.57812 7.07812 1.29492 5.97266 1.29492H4.52539V8.13867H5.73828C6.92578 8.13867 7.81836 7.84766 8.41602 7.26562C9.01367 6.67969 9.3125 5.81445 9.3125 4.66992Z" fill="#9873FF"/>
</svg>
